<svg width="137" height="104" viewBox="0 0 137 104" fill="none" xmlns="http://www.w3.org/2000/svg">
<circle r="2.5" transform="matrix(1.19249e-08 -1 -1 -1.19249e-08 101.5 68.5)" fill="#DFDFDF"/>
<circle r="2.5" transform="matrix(1.19249e-08 -1 -1 -1.19249e-08 101.5 79.5)" fill="#DFDFDF"/>
<circle r="2.5" transform="matrix(1.19249e-08 -1 -1 -1.19249e-08 101.5 90.5)" fill="#DFDFDF"/>
<circle r="2.5" transform="matrix(1.19249e-08 -1 -1 -1.19249e-08 101.5 101.5)" fill="#DFDFDF"/>
<circle r="2.5" transform="matrix(1.19249e-08 -1 -1 -1.19249e-08 101.5 57.5)" fill="#DFDFDF"/>
<circle r="2.5" transform="matrix(1.19249e-08 -1 -1 -1.19249e-08 101.5 46.5)" fill="#DFDFDF"/>
<circle r="2.5" transform="matrix(1.19249e-08 -1 -1 -1.19249e-08 101.5 35.5)" fill="#DFDFDF"/>
<circle r="2.5" transform="matrix(1.19249e-08 -1 -1 -1.19249e-08 101.5 24.5)" fill="#DFDFDF"/>
<circle r="2.5" transform="matrix(1.19249e-08 -1 -1 -1.19249e-08 101.5 13.5)" fill="#DFDFDF"/>
<circle r="2.5" transform="matrix(1.19249e-08 -1 -1 -1.19249e-08 101.5 2.5)" fill="#DFDFDF"/>
<circle r="2.5" transform="matrix(1.19249e-08 -1 -1 -1.19249e-08 112.5 68.5)" fill="#DFDFDF"/>
<circle r="2.5" transform="matrix(1.19249e-08 -1 -1 -1.19249e-08 112.5 79.5)" fill="#DFDFDF"/>
<circle r="2.5" transform="matrix(1.19249e-08 -1 -1 -1.19249e-08 112.5 90.5)" fill="#DFDFDF"/>
<circle r="2.5" transform="matrix(1.19249e-08 -1 -1 -1.19249e-08 112.5 101.5)" fill="#DFDFDF"/>
<circle r="2.5" transform="matrix(1.19249e-08 -1 -1 -1.19249e-08 112.5 57.5)" fill="#DFDFDF"/>
<circle r="2.5" transform="matrix(1.19249e-08 -1 -1 -1.19249e-08 112.5 46.5)" fill="#DFDFDF"/>
<circle r="2.5" transform="matrix(1.19249e-08 -1 -1 -1.19249e-08 112.5 35.5)" fill="#DFDFDF"/>
<circle r="2.5" transform="matrix(1.19249e-08 -1 -1 -1.19249e-08 112.5 24.5)" fill="#DFDFDF"/>
<circle r="2.5" transform="matrix(1.19249e-08 -1 -1 -1.19249e-08 112.5 13.5)" fill="#DFDFDF"/>
<circle r="2.5" transform="matrix(1.19249e-08 -1 -1 -1.19249e-08 112.5 2.5)" fill="#DFDFDF"/>
<circle r="2.5" transform="matrix(1.19249e-08 -1 -1 -1.19249e-08 123.5 68.5)" fill="#DFDFDF"/>
<circle r="2.5" transform="matrix(1.19249e-08 -1 -1 -1.19249e-08 123.5 79.5)" fill="#DFDFDF"/>
<circle r="2.5" transform="matrix(1.19249e-08 -1 -1 -1.19249e-08 123.5 90.5)" fill="#DFDFDF"/>
<circle r="2.5" transform="matrix(1.19249e-08 -1 -1 -1.19249e-08 123.5 101.5)" fill="#DFDFDF"/>
<circle r="2.5" transform="matrix(1.19249e-08 -1 -1 -1.19249e-08 123.5 57.5)" fill="#DFDFDF"/>
<circle r="2.5" transform="matrix(1.19249e-08 -1 -1 -1.19249e-08 123.5 46.5)" fill="#DFDFDF"/>
<circle r="2.5" transform="matrix(1.19249e-08 -1 -1 -1.19249e-08 123.5 35.5)" fill="#DFDFDF"/>
<circle r="2.5" transform="matrix(1.19249e-08 -1 -1 -1.19249e-08 123.5 24.5)" fill="#DFDFDF"/>
<circle r="2.5" transform="matrix(1.19249e-08 -1 -1 -1.19249e-08 123.5 13.5)" fill="#DFDFDF"/>
<circle r="2.5" transform="matrix(1.19249e-08 -1 -1 -1.19249e-08 123.5 2.5)" fill="#DFDFDF"/>
<circle r="2.5" transform="matrix(1.19249e-08 -1 -1 -1.19249e-08 134.5 68.5)" fill="#DFDFDF"/>
<circle r="2.5" transform="matrix(1.19249e-08 -1 -1 -1.19249e-08 134.5 79.5)" fill="#DFDFDF"/>
<circle r="2.5" transform="matrix(1.19249e-08 -1 -1 -1.19249e-08 134.5 90.5)" fill="#DFDFDF"/>
<circle r="2.5" transform="matrix(1.19249e-08 -1 -1 -1.19249e-08 134.5 101.5)" fill="#DFDFDF"/>
<circle r="2.5" transform="matrix(1.19249e-08 -1 -1 -1.19249e-08 134.5 57.5)" fill="#DFDFDF"/>
<circle r="2.5" transform="matrix(1.19249e-08 -1 -1 -1.19249e-08 134.5 46.5)" fill="#DFDFDF"/>
<circle r="2.5" transform="matrix(1.19249e-08 -1 -1 -1.19249e-08 134.5 35.5)" fill="#DFDFDF"/>
<circle r="2.5" transform="matrix(1.19249e-08 -1 -1 -1.19249e-08 134.5 24.5)" fill="#DFDFDF"/>
<circle r="2.5" transform="matrix(1.19249e-08 -1 -1 -1.19249e-08 134.5 13.5)" fill="#DFDFDF"/>
<circle r="2.5" transform="matrix(1.19249e-08 -1 -1 -1.19249e-08 134.5 2.5)" fill="#DFDFDF"/>
<circle r="2.5" transform="matrix(1.19249e-08 -1 -1 -1.19249e-08 90.5 68.5)" fill="#DFDFDF"/>
<circle r="2.5" transform="matrix(1.19249e-08 -1 -1 -1.19249e-08 90.5 79.5)" fill="#DFDFDF"/>
<circle r="2.5" transform="matrix(1.19249e-08 -1 -1 -1.19249e-08 90.5 90.5)" fill="#DFDFDF"/>
<circle r="2.5" transform="matrix(1.19249e-08 -1 -1 -1.19249e-08 90.5 101.5)" fill="#DFDFDF"/>
<circle r="2.5" transform="matrix(1.19249e-08 -1 -1 -1.19249e-08 90.5 57.5)" fill="#DFDFDF"/>
<circle r="2.5" transform="matrix(1.19249e-08 -1 -1 -1.19249e-08 90.5 46.5)" fill="#DFDFDF"/>
<circle r="2.5" transform="matrix(1.19249e-08 -1 -1 -1.19249e-08 90.5 35.5)" fill="#DFDFDF"/>
<circle r="2.5" transform="matrix(1.19249e-08 -1 -1 -1.19249e-08 90.5 24.5)" fill="#DFDFDF"/>
<circle r="2.5" transform="matrix(1.19249e-08 -1 -1 -1.19249e-08 90.5 13.5)" fill="#DFDFDF"/>
<circle r="2.5" transform="matrix(1.19249e-08 -1 -1 -1.19249e-08 90.5 2.5)" fill="#DFDFDF"/>
<circle r="2.5" transform="matrix(1.19249e-08 -1 -1 -1.19249e-08 79.5 68.5)" fill="#DFDFDF"/>
<circle r="2.5" transform="matrix(1.19249e-08 -1 -1 -1.19249e-08 79.5 79.5)" fill="#DFDFDF"/>
<circle r="2.5" transform="matrix(1.19249e-08 -1 -1 -1.19249e-08 79.5 90.5)" fill="#DFDFDF"/>
<circle r="2.5" transform="matrix(1.19249e-08 -1 -1 -1.19249e-08 79.5 101.5)" fill="#DFDFDF"/>
<circle r="2.5" transform="matrix(1.19249e-08 -1 -1 -1.19249e-08 79.5 57.5)" fill="#DFDFDF"/>
<circle r="2.5" transform="matrix(1.19249e-08 -1 -1 -1.19249e-08 79.5 46.5)" fill="#DFDFDF"/>
<circle r="2.5" transform="matrix(1.19249e-08 -1 -1 -1.19249e-08 79.5 35.5)" fill="#DFDFDF"/>
<circle r="2.5" transform="matrix(1.19249e-08 -1 -1 -1.19249e-08 79.5 24.5)" fill="#DFDFDF"/>
<circle r="2.5" transform="matrix(1.19249e-08 -1 -1 -1.19249e-08 79.5 13.5)" fill="#DFDFDF"/>
<circle r="2.5" transform="matrix(1.19249e-08 -1 -1 -1.19249e-08 79.5 2.5)" fill="#DFDFDF"/>
<circle r="2.5" transform="matrix(1.19249e-08 -1 -1 -1.19249e-08 35.5 68.5)" fill="#DFDFDF"/>
<circle r="2.5" transform="matrix(1.19249e-08 -1 -1 -1.19249e-08 35.5 79.5)" fill="#DFDFDF"/>
<circle r="2.5" transform="matrix(1.19249e-08 -1 -1 -1.19249e-08 35.5 90.5)" fill="#DFDFDF"/>
<circle r="2.5" transform="matrix(1.19249e-08 -1 -1 -1.19249e-08 35.5 101.5)" fill="#DFDFDF"/>
<circle r="2.5" transform="matrix(1.19249e-08 -1 -1 -1.19249e-08 35.5 57.5)" fill="#DFDFDF"/>
<circle r="2.5" transform="matrix(1.19249e-08 -1 -1 -1.19249e-08 35.5 46.5)" fill="#DFDFDF"/>
<circle r="2.5" transform="matrix(1.19249e-08 -1 -1 -1.19249e-08 35.5 35.5)" fill="#DFDFDF"/>
<circle r="2.5" transform="matrix(1.19249e-08 -1 -1 -1.19249e-08 35.5 24.5)" fill="#DFDFDF"/>
<circle r="2.5" transform="matrix(1.19249e-08 -1 -1 -1.19249e-08 35.5 13.5)" fill="#DFDFDF"/>
<circle r="2.5" transform="matrix(1.19249e-08 -1 -1 -1.19249e-08 35.5 2.5)" fill="#DFDFDF"/>
<circle r="2.5" transform="matrix(1.19249e-08 -1 -1 -1.19249e-08 68.5 68.5)" fill="#DFDFDF"/>
<circle r="2.5" transform="matrix(1.19249e-08 -1 -1 -1.19249e-08 68.5 79.5)" fill="#DFDFDF"/>
<circle r="2.5" transform="matrix(1.19249e-08 -1 -1 -1.19249e-08 68.5 90.5)" fill="#DFDFDF"/>
<circle r="2.5" transform="matrix(1.19249e-08 -1 -1 -1.19249e-08 68.5 101.5)" fill="#DFDFDF"/>
<circle r="2.5" transform="matrix(1.19249e-08 -1 -1 -1.19249e-08 68.5 57.5)" fill="#DFDFDF"/>
<circle r="2.5" transform="matrix(1.19249e-08 -1 -1 -1.19249e-08 68.5 46.5)" fill="#DFDFDF"/>
<circle r="2.5" transform="matrix(1.19249e-08 -1 -1 -1.19249e-08 68.5 35.5)" fill="#DFDFDF"/>
<circle r="2.5" transform="matrix(1.19249e-08 -1 -1 -1.19249e-08 68.5 24.5)" fill="#DFDFDF"/>
<circle r="2.5" transform="matrix(1.19249e-08 -1 -1 -1.19249e-08 68.5 13.5)" fill="#DFDFDF"/>
<circle r="2.5" transform="matrix(1.19249e-08 -1 -1 -1.19249e-08 68.5 2.5)" fill="#DFDFDF"/>
<circle r="2.5" transform="matrix(1.19249e-08 -1 -1 -1.19249e-08 24.5 68.5)" fill="#DFDFDF"/>
<circle r="2.5" transform="matrix(1.19249e-08 -1 -1 -1.19249e-08 24.5 79.5)" fill="#DFDFDF"/>
<circle r="2.5" transform="matrix(1.19249e-08 -1 -1 -1.19249e-08 24.5 90.5)" fill="#DFDFDF"/>
<circle r="2.5" transform="matrix(1.19249e-08 -1 -1 -1.19249e-08 24.5 101.5)" fill="#DFDFDF"/>
<circle r="2.5" transform="matrix(1.19249e-08 -1 -1 -1.19249e-08 24.5 57.5)" fill="#DFDFDF"/>
<circle r="2.5" transform="matrix(1.19249e-08 -1 -1 -1.19249e-08 24.5 46.5)" fill="#DFDFDF"/>
<circle r="2.5" transform="matrix(1.19249e-08 -1 -1 -1.19249e-08 24.5 35.5)" fill="#DFDFDF"/>
<circle r="2.5" transform="matrix(1.19249e-08 -1 -1 -1.19249e-08 24.5 24.5)" fill="#DFDFDF"/>
<circle r="2.5" transform="matrix(1.19249e-08 -1 -1 -1.19249e-08 24.5 13.5)" fill="#DFDFDF"/>
<circle r="2.5" transform="matrix(1.19249e-08 -1 -1 -1.19249e-08 24.5 2.5)" fill="#DFDFDF"/>
<circle r="2.5" transform="matrix(1.19249e-08 -1 -1 -1.19249e-08 57.5 68.5)" fill="#DFDFDF"/>
<circle r="2.5" transform="matrix(1.19249e-08 -1 -1 -1.19249e-08 57.5 79.5)" fill="#DFDFDF"/>
<circle r="2.5" transform="matrix(1.19249e-08 -1 -1 -1.19249e-08 57.5 90.5)" fill="#DFDFDF"/>
<circle r="2.5" transform="matrix(1.19249e-08 -1 -1 -1.19249e-08 57.5 101.5)" fill="#DFDFDF"/>
<circle r="2.5" transform="matrix(1.19249e-08 -1 -1 -1.19249e-08 57.5 57.5)" fill="#DFDFDF"/>
<circle r="2.5" transform="matrix(1.19249e-08 -1 -1 -1.19249e-08 57.5 46.5)" fill="#DFDFDF"/>
<circle r="2.5" transform="matrix(1.19249e-08 -1 -1 -1.19249e-08 57.5 35.5)" fill="#DFDFDF"/>
<circle r="2.5" transform="matrix(1.19249e-08 -1 -1 -1.19249e-08 57.5 24.5)" fill="#DFDFDF"/>
<circle r="2.5" transform="matrix(1.19249e-08 -1 -1 -1.19249e-08 57.5 13.5)" fill="#DFDFDF"/>
<circle r="2.5" transform="matrix(1.19249e-08 -1 -1 -1.19249e-08 57.5 2.5)" fill="#DFDFDF"/>
<circle r="2.5" transform="matrix(1.19249e-08 -1 -1 -1.19249e-08 13.5 68.5)" fill="#DFDFDF"/>
<circle r="2.5" transform="matrix(1.19249e-08 -1 -1 -1.19249e-08 13.5 79.5)" fill="#DFDFDF"/>
<circle r="2.5" transform="matrix(1.19249e-08 -1 -1 -1.19249e-08 13.5 90.5)" fill="#DFDFDF"/>
<circle r="2.5" transform="matrix(1.19249e-08 -1 -1 -1.19249e-08 13.5 101.5)" fill="#DFDFDF"/>
<circle r="2.5" transform="matrix(1.19249e-08 -1 -1 -1.19249e-08 13.5 57.5)" fill="#DFDFDF"/>
<circle r="2.5" transform="matrix(1.19249e-08 -1 -1 -1.19249e-08 13.5 46.5)" fill="#DFDFDF"/>
<circle r="2.5" transform="matrix(1.19249e-08 -1 -1 -1.19249e-08 13.5 35.5)" fill="#DFDFDF"/>
<circle r="2.5" transform="matrix(1.19249e-08 -1 -1 -1.19249e-08 13.5 24.5)" fill="#DFDFDF"/>
<circle r="2.5" transform="matrix(1.19249e-08 -1 -1 -1.19249e-08 13.5 13.5)" fill="#DFDFDF"/>
<circle r="2.5" transform="matrix(1.19249e-08 -1 -1 -1.19249e-08 13.5 2.5)" fill="#DFDFDF"/>
<circle r="2.5" transform="matrix(1.19249e-08 -1 -1 -1.19249e-08 46.5 68.5)" fill="#DFDFDF"/>
<circle r="2.5" transform="matrix(1.19249e-08 -1 -1 -1.19249e-08 46.5 79.5)" fill="#DFDFDF"/>
<circle r="2.5" transform="matrix(1.19249e-08 -1 -1 -1.19249e-08 46.5 90.5)" fill="#DFDFDF"/>
<circle r="2.5" transform="matrix(1.19249e-08 -1 -1 -1.19249e-08 46.5 101.5)" fill="#DFDFDF"/>
<circle r="2.5" transform="matrix(1.19249e-08 -1 -1 -1.19249e-08 46.5 57.5)" fill="#DFDFDF"/>
<circle r="2.5" transform="matrix(1.19249e-08 -1 -1 -1.19249e-08 46.5 46.5)" fill="#DFDFDF"/>
<circle r="2.5" transform="matrix(1.19249e-08 -1 -1 -1.19249e-08 46.5 35.5)" fill="#DFDFDF"/>
<circle r="2.5" transform="matrix(1.19249e-08 -1 -1 -1.19249e-08 46.5 24.5)" fill="#DFDFDF"/>
<circle r="2.5" transform="matrix(1.19249e-08 -1 -1 -1.19249e-08 46.5 13.5)" fill="#DFDFDF"/>
<circle r="2.5" transform="matrix(1.19249e-08 -1 -1 -1.19249e-08 46.5 2.5)" fill="#DFDFDF"/>
<circle r="2.5" transform="matrix(1.19249e-08 -1 -1 -1.19249e-08 2.5 68.5)" fill="#DFDFDF"/>
<circle r="2.5" transform="matrix(1.19249e-08 -1 -1 -1.19249e-08 2.5 79.5)" fill="#DFDFDF"/>
<circle r="2.5" transform="matrix(1.19249e-08 -1 -1 -1.19249e-08 2.5 90.5)" fill="#DFDFDF"/>
<circle r="2.5" transform="matrix(1.19249e-08 -1 -1 -1.19249e-08 2.5 101.5)" fill="#DFDFDF"/>
<circle r="2.5" transform="matrix(1.19249e-08 -1 -1 -1.19249e-08 2.5 57.5)" fill="#DFDFDF"/>
<circle r="2.5" transform="matrix(1.19249e-08 -1 -1 -1.19249e-08 2.5 46.5)" fill="#DFDFDF"/>
<circle r="2.5" transform="matrix(1.19249e-08 -1 -1 -1.19249e-08 2.5 35.5)" fill="#DFDFDF"/>
<circle r="2.5" transform="matrix(1.19249e-08 -1 -1 -1.19249e-08 2.5 24.5)" fill="#DFDFDF"/>
<circle r="2.5" transform="matrix(1.19249e-08 -1 -1 -1.19249e-08 2.5 13.5)" fill="#DFDFDF"/>
<circle r="2.5" transform="matrix(1.19249e-08 -1 -1 -1.19249e-08 2.5 2.5)" fill="#DFDFDF"/>
</svg>
