<svg width="49" height="47" viewBox="0 0 49 47" fill="none" xmlns="http://www.w3.org/2000/svg">
<path d="M14.6289 29.7585H23.0123" stroke="white" stroke-width="2" stroke-miterlimit="10"/>
<path d="M14.6289 23.0088H23.0123" stroke="white" stroke-width="2" stroke-miterlimit="10"/>
<path d="M14.6289 15.8196H23.0123" stroke="white" stroke-width="2" stroke-miterlimit="10"/>
<path d="M37.5964 20.385V38.9312C37.5964 39.86 36.8441 40.616 35.9192 40.616H12.5194C11.5946 40.616 10.8422 39.86 10.8422 38.9312V7.77381C10.8422 6.84466 11.5946 6.08904 12.5194 6.08904H35.9192C36.8441 6.08904 37.5964 6.84466 37.5964 7.77381V13.9673L38.3195 13.2435V7.77381C38.3195 6.44407 37.2446 5.36597 35.9192 5.36597H12.5194C11.194 5.36597 10.1191 6.44407 10.1191 7.77381V38.9312C10.1191 40.2609 11.194 41.339 12.5194 41.339H35.9192C37.2446 41.339 38.3195 40.2609 38.3195 38.9312V19.6612L37.5964 20.385Z" fill="#3F65F0" stroke="white"/>
<path d="M47.5521 9.2314C47.3508 8.90674 47.0442 8.53147 46.687 8.17463C46.2553 7.74259 45.4353 7.01807 44.7983 7.01807C44.5637 7.01807 44.3475 7.10556 44.1905 7.26283L41.4186 10.0344L28.0439 23.4399C27.7539 23.7298 27.5544 24.0758 27.443 24.4431L24.5059 30.1558L30.4036 27.4623C30.7959 27.3521 31.156 27.1445 31.4521 26.8484L45.0778 13.1928L47.5995 10.6711C47.837 10.4332 48.0218 9.99064 47.5521 9.2314ZM27.4719 25.928C27.5869 26.2642 27.776 26.5805 28.0439 26.8484C28.2796 27.0845 28.5569 27.2642 28.8581 27.3835L25.896 28.855L27.4719 25.928ZM30.9412 26.3372C30.6224 26.6557 30.1986 26.8311 29.7478 26.8311C29.2973 26.8311 28.8736 26.6557 28.5551 26.3372C28.2373 26.0191 28.0623 25.5954 28.0623 25.1442C28.0623 24.6926 28.2373 24.2689 28.5551 23.9511L40.9927 11.5142C41.1677 11.9021 41.4996 12.3475 42.0069 12.8551C42.3301 13.1783 42.8698 13.6646 43.3879 13.8895L30.9412 26.3372ZM47.0883 10.1598L43.9921 13.2561C43.9649 13.2832 43.9248 13.2886 43.8959 13.2886C43.7462 13.2886 43.2657 13.0912 42.5181 12.3435C41.6497 11.474 41.4974 10.9784 41.6059 10.8699L44.7021 7.77404C44.7307 7.74512 44.7748 7.74114 44.7987 7.74114C44.9483 7.74114 45.4288 7.93854 46.1761 8.68584C46.4896 8.9993 46.7672 9.33661 46.9375 9.6121C46.9646 9.65585 47.2007 10.047 47.0883 10.1598Z" fill="#3F65F0" stroke="white"/>
</svg>
