<svg width="104" height="137" viewBox="0 0 104 137" fill="none" xmlns="http://www.w3.org/2000/svg">
<circle cx="35.5" cy="35.5" r="2.5" fill="#E9E9E9"/>
<circle cx="24.5" cy="35.5" r="2.5" fill="#E9E9E9"/>
<circle cx="13.5" cy="35.5" r="2.5" fill="#E9E9E9"/>
<circle cx="2.5" cy="35.5" r="2.5" fill="#E9E9E9"/>
<circle cx="46.5" cy="35.5" r="2.5" fill="#E9E9E9"/>
<circle cx="57.5" cy="35.5" r="2.5" fill="#E9E9E9"/>
<circle cx="68.5" cy="35.5" r="2.5" fill="#E9E9E9"/>
<circle cx="79.5" cy="35.5" r="2.5" fill="#E9E9E9"/>
<circle cx="90.5" cy="35.5" r="2.5" fill="#E9E9E9"/>
<circle cx="101.5" cy="35.5" r="2.5" fill="#E9E9E9"/>
<circle cx="35.5" cy="24.5" r="2.5" fill="#E9E9E9"/>
<circle cx="24.5" cy="24.5" r="2.5" fill="#E9E9E9"/>
<circle cx="13.5" cy="24.5" r="2.5" fill="#E9E9E9"/>
<circle cx="2.5" cy="24.5" r="2.5" fill="#E9E9E9"/>
<circle cx="46.5" cy="24.5" r="2.5" fill="#E9E9E9"/>
<circle cx="57.5" cy="24.5" r="2.5" fill="#E9E9E9"/>
<circle cx="68.5" cy="24.5" r="2.5" fill="#E9E9E9"/>
<circle cx="79.5" cy="24.5" r="2.5" fill="#E9E9E9"/>
<circle cx="90.5" cy="24.5" r="2.5" fill="#E9E9E9"/>
<circle cx="101.5" cy="24.5" r="2.5" fill="#E9E9E9"/>
<circle cx="35.5" cy="13.5" r="2.5" fill="#E9E9E9"/>
<circle cx="24.5" cy="13.5" r="2.5" fill="#E9E9E9"/>
<circle cx="13.5" cy="13.5" r="2.5" fill="#E9E9E9"/>
<circle cx="2.5" cy="13.5" r="2.5" fill="#E9E9E9"/>
<circle cx="46.5" cy="13.5" r="2.5" fill="#E9E9E9"/>
<circle cx="57.5" cy="13.5" r="2.5" fill="#E9E9E9"/>
<circle cx="68.5" cy="13.5" r="2.5" fill="#E9E9E9"/>
<circle cx="79.5" cy="13.5" r="2.5" fill="#E9E9E9"/>
<circle cx="90.5" cy="13.5" r="2.5" fill="#E9E9E9"/>
<circle cx="101.5" cy="13.5" r="2.5" fill="#E9E9E9"/>
<circle cx="35.5" cy="2.5" r="2.5" fill="#E9E9E9"/>
<circle cx="24.5" cy="2.5" r="2.5" fill="#E9E9E9"/>
<circle cx="13.5" cy="2.5" r="2.5" fill="#E9E9E9"/>
<circle cx="2.5" cy="2.5" r="2.5" fill="#E9E9E9"/>
<circle cx="46.5" cy="2.5" r="2.5" fill="#E9E9E9"/>
<circle cx="57.5" cy="2.5" r="2.5" fill="#E9E9E9"/>
<circle cx="68.5" cy="2.5" r="2.5" fill="#E9E9E9"/>
<circle cx="79.5" cy="2.5" r="2.5" fill="#E9E9E9"/>
<circle cx="90.5" cy="2.5" r="2.5" fill="#E9E9E9"/>
<circle cx="101.5" cy="2.5" r="2.5" fill="#E9E9E9"/>
<circle cx="35.5" cy="46.5" r="2.5" fill="#E9E9E9"/>
<circle cx="24.5" cy="46.5" r="2.5" fill="#E9E9E9"/>
<circle cx="13.5" cy="46.5" r="2.5" fill="#E9E9E9"/>
<circle cx="2.5" cy="46.5" r="2.5" fill="#E9E9E9"/>
<circle cx="46.5" cy="46.5" r="2.5" fill="#E9E9E9"/>
<circle cx="57.5" cy="46.5" r="2.5" fill="#E9E9E9"/>
<circle cx="68.5" cy="46.5" r="2.5" fill="#E9E9E9"/>
<circle cx="79.5" cy="46.5" r="2.5" fill="#E9E9E9"/>
<circle cx="90.5" cy="46.5" r="2.5" fill="#E9E9E9"/>
<circle cx="101.5" cy="46.5" r="2.5" fill="#E9E9E9"/>
<circle cx="35.5" cy="57.5" r="2.5" fill="#E9E9E9"/>
<circle cx="24.5" cy="57.5" r="2.5" fill="#E9E9E9"/>
<circle cx="13.5" cy="57.5" r="2.5" fill="#E9E9E9"/>
<circle cx="2.5" cy="57.5" r="2.5" fill="#E9E9E9"/>
<circle cx="46.5" cy="57.5" r="2.5" fill="#E9E9E9"/>
<circle cx="57.5" cy="57.5" r="2.5" fill="#E9E9E9"/>
<circle cx="68.5" cy="57.5" r="2.5" fill="#E9E9E9"/>
<circle cx="79.5" cy="57.5" r="2.5" fill="#E9E9E9"/>
<circle cx="90.5" cy="57.5" r="2.5" fill="#E9E9E9"/>
<circle cx="101.5" cy="57.5" r="2.5" fill="#E9E9E9"/>
<circle cx="35.5" cy="101.5" r="2.5" fill="#E9E9E9"/>
<circle cx="24.5" cy="101.5" r="2.5" fill="#E9E9E9"/>
<circle cx="13.5" cy="101.5" r="2.5" fill="#E9E9E9"/>
<circle cx="2.5" cy="101.5" r="2.5" fill="#E9E9E9"/>
<circle cx="46.5" cy="101.5" r="2.5" fill="#E9E9E9"/>
<circle cx="57.5" cy="101.5" r="2.5" fill="#E9E9E9"/>
<circle cx="68.5" cy="101.5" r="2.5" fill="#E9E9E9"/>
<circle cx="79.5" cy="101.5" r="2.5" fill="#E9E9E9"/>
<circle cx="90.5" cy="101.5" r="2.5" fill="#E9E9E9"/>
<circle cx="101.5" cy="101.5" r="2.5" fill="#E9E9E9"/>
<circle cx="35.5" cy="68.5" r="2.5" fill="#E9E9E9"/>
<circle cx="24.5" cy="68.5" r="2.5" fill="#E9E9E9"/>
<circle cx="13.5" cy="68.5" r="2.5" fill="#E9E9E9"/>
<circle cx="2.5" cy="68.5" r="2.5" fill="#E9E9E9"/>
<circle cx="46.5" cy="68.5" r="2.5" fill="#E9E9E9"/>
<circle cx="57.5" cy="68.5" r="2.5" fill="#E9E9E9"/>
<circle cx="68.5" cy="68.5" r="2.5" fill="#E9E9E9"/>
<circle cx="79.5" cy="68.5" r="2.5" fill="#E9E9E9"/>
<circle cx="90.5" cy="68.5" r="2.5" fill="#E9E9E9"/>
<circle cx="101.5" cy="68.5" r="2.5" fill="#E9E9E9"/>
<circle cx="35.5" cy="112.5" r="2.5" fill="#E9E9E9"/>
<circle cx="24.5" cy="112.5" r="2.5" fill="#E9E9E9"/>
<circle cx="13.5" cy="112.5" r="2.5" fill="#E9E9E9"/>
<circle cx="2.5" cy="112.5" r="2.5" fill="#E9E9E9"/>
<circle cx="46.5" cy="112.5" r="2.5" fill="#E9E9E9"/>
<circle cx="57.5" cy="112.5" r="2.5" fill="#E9E9E9"/>
<circle cx="68.5" cy="112.5" r="2.5" fill="#E9E9E9"/>
<circle cx="79.5" cy="112.5" r="2.5" fill="#E9E9E9"/>
<circle cx="90.5" cy="112.5" r="2.5" fill="#E9E9E9"/>
<circle cx="101.5" cy="112.5" r="2.5" fill="#E9E9E9"/>
<circle cx="35.5" cy="79.5" r="2.5" fill="#E9E9E9"/>
<circle cx="24.5" cy="79.5" r="2.5" fill="#E9E9E9"/>
<circle cx="13.5" cy="79.5" r="2.5" fill="#E9E9E9"/>
<circle cx="2.5" cy="79.5" r="2.5" fill="#E9E9E9"/>
<circle cx="46.5" cy="79.5" r="2.5" fill="#E9E9E9"/>
<circle cx="57.5" cy="79.5" r="2.5" fill="#E9E9E9"/>
<circle cx="68.5" cy="79.5" r="2.5" fill="#E9E9E9"/>
<circle cx="79.5" cy="79.5" r="2.5" fill="#E9E9E9"/>
<circle cx="90.5" cy="79.5" r="2.5" fill="#E9E9E9"/>
<circle cx="101.5" cy="79.5" r="2.5" fill="#E9E9E9"/>
<circle cx="35.5" cy="123.5" r="2.5" fill="#E9E9E9"/>
<circle cx="24.5" cy="123.5" r="2.5" fill="#E9E9E9"/>
<circle cx="13.5" cy="123.5" r="2.5" fill="#E9E9E9"/>
<circle cx="2.5" cy="123.5" r="2.5" fill="#E9E9E9"/>
<circle cx="46.5" cy="123.5" r="2.5" fill="#E9E9E9"/>
<circle cx="57.5" cy="123.5" r="2.5" fill="#E9E9E9"/>
<circle cx="68.5" cy="123.5" r="2.5" fill="#E9E9E9"/>
<circle cx="79.5" cy="123.5" r="2.5" fill="#E9E9E9"/>
<circle cx="90.5" cy="123.5" r="2.5" fill="#E9E9E9"/>
<circle cx="101.5" cy="123.5" r="2.5" fill="#E9E9E9"/>
<circle cx="35.5" cy="90.5" r="2.5" fill="#E9E9E9"/>
<circle cx="24.5" cy="90.5" r="2.5" fill="#E9E9E9"/>
<circle cx="13.5" cy="90.5" r="2.5" fill="#E9E9E9"/>
<circle cx="2.5" cy="90.5" r="2.5" fill="#E9E9E9"/>
<circle cx="46.5" cy="90.5" r="2.5" fill="#E9E9E9"/>
<circle cx="57.5" cy="90.5" r="2.5" fill="#E9E9E9"/>
<circle cx="68.5" cy="90.5" r="2.5" fill="#E9E9E9"/>
<circle cx="79.5" cy="90.5" r="2.5" fill="#E9E9E9"/>
<circle cx="90.5" cy="90.5" r="2.5" fill="#E9E9E9"/>
<circle cx="101.5" cy="90.5" r="2.5" fill="#E9E9E9"/>
<circle cx="35.5" cy="134.5" r="2.5" fill="#E9E9E9"/>
<circle cx="24.5" cy="134.5" r="2.5" fill="#E9E9E9"/>
<circle cx="13.5" cy="134.5" r="2.5" fill="#E9E9E9"/>
<circle cx="2.5" cy="134.5" r="2.5" fill="#E9E9E9"/>
<circle cx="46.5" cy="134.5" r="2.5" fill="#E9E9E9"/>
<circle cx="57.5" cy="134.5" r="2.5" fill="#E9E9E9"/>
<circle cx="68.5" cy="134.5" r="2.5" fill="#E9E9E9"/>
<circle cx="79.5" cy="134.5" r="2.5" fill="#E9E9E9"/>
<circle cx="90.5" cy="134.5" r="2.5" fill="#E9E9E9"/>
<circle cx="101.5" cy="134.5" r="2.5" fill="#E9E9E9"/>
</svg>
