<svg width="16" height="16" viewBox="0 0 16 16" fill="none" xmlns="http://www.w3.org/2000/svg">
<g clip-path="url(#clip0_434_1677)">
<path d="M7.99995 6.07104C8.38142 6.07104 8.75433 6.18416 9.07151 6.3961C9.38869 6.60804 9.63591 6.90927 9.78189 7.2617C9.92788 7.61414 9.96607 8.00195 9.89165 8.37609C9.81723 8.75023 9.63353 9.09391 9.36379 9.36365C9.09405 9.63339 8.75037 9.81709 8.37623 9.89151C8.00209 9.96593 7.61428 9.92774 7.26184 9.78175C6.90941 9.63577 6.60817 9.38855 6.39624 9.07137C6.1843 8.75419 6.07118 8.38128 6.07118 7.99981C6.07181 7.48846 6.27522 6.99824 6.6368 6.63666C6.99838 6.27509 7.4886 6.07167 7.99995 6.07104Z" fill="#1E5476"/>
<path d="M5.7308 3.08667H10.269C10.97 3.08748 11.6421 3.36631 12.1378 3.862C12.6334 4.35769 12.9123 5.02976 12.9131 5.73077V10.269C12.9123 10.97 12.6334 11.642 12.1378 12.1377C11.6421 12.6334 10.97 12.9123 10.269 12.9131H5.7308C5.02979 12.9123 4.35772 12.6334 3.86203 12.1377C3.36634 11.642 3.0875 10.97 3.08669 10.269V5.73077C3.0875 5.02976 3.36634 4.35769 3.86203 3.862C4.35772 3.36631 5.02979 3.08748 5.7308 3.08667ZM7.99989 10.9476C8.58289 10.9476 9.1528 10.7747 9.63755 10.4508C10.1223 10.1269 10.5001 9.66653 10.7232 9.12791C10.9463 8.58928 11.0047 7.99659 10.891 7.42479C10.7772 6.85299 10.4965 6.32776 10.0842 5.91552C9.67199 5.50327 9.14676 5.22253 8.57496 5.10879C8.00316 4.99505 7.41047 5.05343 6.87185 5.27653C6.33323 5.49964 5.87286 5.87745 5.54896 6.3622C5.22506 6.84695 5.05218 7.41686 5.05218 7.99987C5.05308 8.78137 5.36393 9.53061 5.91654 10.0832C6.46914 10.6358 7.21838 10.9467 7.99989 10.9476ZM4.76081 5.4989C4.90473 5.4989 5.04543 5.45623 5.16511 5.37629C5.28479 5.29635 5.37809 5.18273 5.43322 5.04978C5.48834 4.91683 5.50282 4.77052 5.47481 4.62935C5.44681 4.48817 5.37758 4.35847 5.27588 4.25662C5.17418 4.15478 5.04457 4.08538 4.90344 4.05717C4.7623 4.02897 4.61598 4.04324 4.48295 4.09818C4.34992 4.15312 4.23617 4.24626 4.15606 4.36583C4.07595 4.4854 4.03309 4.62604 4.03289 4.76996C4.03271 4.86567 4.0514 4.96047 4.0879 5.04894C4.12441 5.13741 4.178 5.21782 4.24561 5.28556C4.31322 5.35329 4.39352 5.40703 4.48193 5.4437C4.57033 5.48037 4.6651 5.49924 4.76081 5.49924V5.4989Z" fill="#1E5476"/>
<path d="M0.0153704 3.74122C0.0163183 3.45285 0.0427141 3.16512 0.0942488 2.88139C0.160207 2.53494 0.253023 2.19733 0.418939 1.8842C0.591746 1.55429 0.816649 1.25441 1.08498 0.996144C1.4903 0.599368 1.99098 0.313667 2.53878 0.166568C3.04298 0.030572 3.55875 0.00201282 4.07587 0.0026928C4.07758 0.000413887 4.07864 -0.00229016 4.07893 -0.00512695H11.9239C11.9239 -0.00240703 11.9239 0.000312871 11.9239 0.0026928C12.218 0.00813264 12.5127 0.0057527 12.8051 0.0421316C13.1258 0.0760317 13.4414 0.146763 13.7459 0.252925C14.2194 0.42758 14.6467 0.708063 14.9953 1.07298C15.3949 1.47909 15.6827 1.98167 15.8307 2.53188C15.9646 3.03234 15.9939 3.54267 15.9946 4.05673L16 11.9333C15.9905 12.2886 15.9874 12.6473 15.9276 12.9995C15.864 13.3735 15.7732 13.7376 15.5998 14.0769C15.3692 14.5316 15.0406 14.9294 14.6377 15.2417C14.35 15.471 14.0242 15.6476 13.6751 15.7636C13.1611 15.9295 12.6307 15.9931 12.0925 15.9962C11.7566 15.9982 11.4214 16.0067 11.0854 16.0053C8.64636 15.9951 6.20693 16.023 3.76784 15.9904C3.44562 15.9833 3.12456 15.9492 2.80805 15.8884C2.20948 15.7829 1.65247 15.5118 1.20024 15.1057C0.663732 14.627 0.301642 14.0416 0.138107 13.3347C0.0310106 12.8727 0.00449085 12.4038 -0.000268936 11.9336V11.8398C7.15256e-05 11.8031 0.0140104 3.84662 0.0153704 3.74122ZM2.06823 10.269C2.0694 11.2401 2.45566 12.1711 3.14229 12.8578C3.82891 13.5445 4.75986 13.9308 5.73094 13.9321H10.2691C11.2403 13.9309 12.1713 13.5446 12.858 12.8579C13.5447 12.1712 13.931 11.2402 13.9322 10.269V5.73084C13.931 4.7597 13.5447 3.82867 12.858 3.14197C12.1713 2.45526 11.2403 2.06896 10.2691 2.06779H5.73094C4.7598 2.06896 3.82877 2.45526 3.14207 3.14197C2.45536 3.82867 2.06906 4.7597 2.06789 5.73084L2.06823 10.269Z" fill="#1E5476"/>
</g>
<defs>
<clipPath id="clip0_434_1677">
<rect width="16" height="16" fill="white" transform="matrix(-1 0 0 1 16 0)"/>
</clipPath>
</defs>
</svg>
