<svg width="16" height="16" viewBox="0 0 16 16" fill="none" xmlns="http://www.w3.org/2000/svg">
<path d="M3.55599 15.7779H0.222656V4.66675H3.55599V15.7779ZM15.7782 15.7779H12.4449V9.8423C12.4449 8.29564 11.8938 7.52564 10.8015 7.52564C9.93599 7.52564 9.3871 7.95675 9.11155 8.82008C9.11155 10.2223 9.11155 15.7779 9.11155 15.7779H5.77821C5.77821 15.7779 5.82266 5.77786 5.77821 4.66675H8.40932L8.61266 6.88897H8.68155C9.36488 5.77786 10.4571 5.02453 11.9549 5.02453C13.0938 5.02453 14.0149 5.34119 14.7182 6.13675C15.426 6.93341 15.7782 8.0023 15.7782 9.50342V15.7779Z" fill="#1E5476"/>
<path d="M1.88921 3.55575C2.84037 3.55575 3.61144 2.80955 3.61144 1.88908C3.61144 0.968604 2.84037 0.222412 1.88921 0.222412C0.938058 0.222412 0.166992 0.968604 0.166992 1.88908C0.166992 2.80955 0.938058 3.55575 1.88921 3.55575Z" fill="#1E5476"/>
</svg>
