<svg width="11" height="16" viewBox="0 0 11 16" fill="none" xmlns="http://www.w3.org/2000/svg">
<g clip-path="url(#clip0_434_2172)">
<path d="M0.346578 5.31318C0.231748 5.41218 0.162517 5.55647 0.155824 5.71081C0.149026 5.86515 0.205396 6.01539 0.311126 6.12466C0.416855 6.23382 0.562118 6.29219 0.711455 6.28516C0.860899 6.27814 1.00052 6.20659 1.0962 6.08791L4.9252 2.13509L4.9252 15.2002C4.93503 15.3901 5.03867 15.5614 5.19962 15.6535C5.36046 15.7457 5.55594 15.7457 5.71687 15.6535C5.87781 15.5614 5.98145 15.3901 5.99118 15.2002L5.99117 2.13509L9.81589 6.094C9.91692 6.19365 10.0511 6.24921 10.1907 6.24921C10.3303 6.24921 10.4646 6.19365 10.5655 6.094C10.6652 5.99132 10.7211 5.852 10.7211 5.70663C10.7211 5.56126 10.6652 5.42183 10.5655 5.31926L5.82786 0.422925L5.82797 0.422925C5.72987 0.317652 5.59454 0.258098 5.45315 0.258098C5.31166 0.258098 5.17633 0.317652 5.07834 0.422925L0.346578 5.31318Z" fill="white"/>
</g>
<defs>
<clipPath id="clip0_434_2172">
<rect width="16" height="11" fill="white" transform="translate(0 16) rotate(-90)"/>
</clipPath>
</defs>
</svg>
