<svg preserveAspectRatio="none" viewBox="0 0 188 75" fill="none" xmlns="http://www.w3.org/2000/svg">
<g filter="url(#filter0_d_435_25)">
<path d="M110.797 58H147.933C155.162 57.87 162.045 55.2316 167.105 50.6511C172.166 46.0706 175 39.9131 175 33.5C175 27.0869 172.166 20.9294 167.105 16.3489C162.045 11.7685 155.162 9.13009 147.933 9.00005H52.7597C49.1268 8.99343 45.5282 9.62238 42.1697 10.8509C38.8113 12.0794 35.7589 13.8834 33.1875 16.1596C30.616 18.4357 28.5759 21.1394 27.184 24.1158C25.792 27.0921 25.0756 30.2828 25.0756 33.5051C25.0756 44.0749 22.0652 50.191 19.0207 53.6572C17.5182 55.5815 15.4303 57.0876 13 58H110.797Z" fill="white"/>
</g>
<defs>
<filter id="filter0_d_435_25" x="0" y="0" width="188" height="75" filterUnits="userSpaceOnUse" color-interpolation-filters="sRGB">
<feFlood flood-opacity="0" result="BackgroundImageFix"/>
<feColorMatrix in="SourceAlpha" type="matrix" values="0 0 0 0 0 0 0 0 0 0 0 0 0 0 0 0 0 0 127 0" result="hardAlpha"/>
<feOffset dy="4"/>
<feGaussianBlur stdDeviation="6.5"/>
<feComposite in2="hardAlpha" operator="out"/>
<feColorMatrix type="matrix" values="0 0 0 0 0.0839583 0 0 0 0 0.128194 0 0 0 0 0.216667 0 0 0 0.12 0"/>
<feBlend mode="normal" in2="BackgroundImageFix" result="effect1_dropShadow_435_25"/>
<feBlend mode="normal" in="SourceGraphic" in2="effect1_dropShadow_435_25" result="shape"/>
</filter>
</defs>
</svg>
