<svg width="33" height="34" viewBox="0 0 33 34" fill="none" xmlns="http://www.w3.org/2000/svg">
<path d="M16.5 33.002C25.6058 33.002 33 25.6072 33 16.502C33 7.39674 25.6052 0.00195312 16.5 0.00195312C7.39479 0.00195312 0 7.39674 0 16.502C0 25.6072 7.39479 33.002 16.5 33.002ZM16.5 2.76057C24.0607 2.76057 30.2414 8.94129 30.2414 16.502C30.2414 24.0626 24.0607 30.2433 16.5 30.2433C8.93934 30.2433 2.75862 24.0626 2.75862 16.502C2.75862 8.94129 8.93934 2.76057 16.5 2.76057ZM15.1204 24.2827V24.0068C15.1204 23.6205 15.2859 23.2894 15.5067 23.0135C15.8378 22.6824 16.2793 22.5168 16.7759 22.6272C16.8863 22.6272 16.9415 22.6824 17.0519 22.6824C17.107 22.7375 17.2174 22.7375 17.2726 22.7927C17.3278 22.8479 17.4381 22.9031 17.4933 22.9583C17.7693 23.2342 17.8796 23.5653 17.8796 23.9516C17.8796 24.062 17.8796 24.1172 17.8244 24.2275C17.8244 24.3379 17.7693 24.3931 17.7693 24.5035C17.7141 24.5586 17.7141 24.669 17.6589 24.7242C17.6037 24.7794 17.5485 24.8898 17.4933 24.9449C17.4381 25.0001 17.3278 25.0553 17.2726 25.1105C17.2174 25.1657 17.107 25.2209 17.0519 25.2209C16.9415 25.3312 16.8311 25.3312 16.7759 25.3312H16.5C16.1137 25.3312 15.7826 25.1657 15.5067 24.9449C15.4515 24.8898 15.3963 24.8346 15.3411 24.7242C15.2859 24.669 15.2307 24.5586 15.2307 24.5035C15.1756 24.4483 15.1756 24.3379 15.1204 24.2827ZM15.1204 18.8746V8.99679C15.1204 8.2242 15.7274 7.61717 16.5 7.61717C17.2726 7.61717 17.8796 8.2242 17.8796 8.99679V18.8197C17.8796 19.5923 17.2726 20.1994 16.5 20.1994C15.7274 20.1994 15.1204 19.592 15.1204 18.8746Z" fill="#F89A1F"/>
</svg>
