<svg width="104" height="137" viewBox="0 0 104 137" fill="none" xmlns="http://www.w3.org/2000/svg">
<circle r="2.5" transform="matrix(-1 0 0 1 68.5 35.5)" fill="#E9E9E9"/>
<circle r="2.5" transform="matrix(-1 0 0 1 79.5 35.5)" fill="#E9E9E9"/>
<circle r="2.5" transform="matrix(-1 0 0 1 90.5 35.5)" fill="#E9E9E9"/>
<circle r="2.5" transform="matrix(-1 0 0 1 101.5 35.5)" fill="#E9E9E9"/>
<circle r="2.5" transform="matrix(-1 0 0 1 57.5 35.5)" fill="#E9E9E9"/>
<circle r="2.5" transform="matrix(-1 0 0 1 46.5 35.5)" fill="#E9E9E9"/>
<circle r="2.5" transform="matrix(-1 0 0 1 35.5 35.5)" fill="#E9E9E9"/>
<circle r="2.5" transform="matrix(-1 0 0 1 24.5 35.5)" fill="#E9E9E9"/>
<circle r="2.5" transform="matrix(-1 0 0 1 13.5 35.5)" fill="#E9E9E9"/>
<circle r="2.5" transform="matrix(-1 0 0 1 2.5 35.5)" fill="#E9E9E9"/>
<circle r="2.5" transform="matrix(-1 0 0 1 68.5 24.5)" fill="#E9E9E9"/>
<circle r="2.5" transform="matrix(-1 0 0 1 79.5 24.5)" fill="#E9E9E9"/>
<circle r="2.5" transform="matrix(-1 0 0 1 90.5 24.5)" fill="#E9E9E9"/>
<circle r="2.5" transform="matrix(-1 0 0 1 101.5 24.5)" fill="#E9E9E9"/>
<circle r="2.5" transform="matrix(-1 0 0 1 57.5 24.5)" fill="#E9E9E9"/>
<circle r="2.5" transform="matrix(-1 0 0 1 46.5 24.5)" fill="#E9E9E9"/>
<circle r="2.5" transform="matrix(-1 0 0 1 35.5 24.5)" fill="#E9E9E9"/>
<circle r="2.5" transform="matrix(-1 0 0 1 24.5 24.5)" fill="#E9E9E9"/>
<circle r="2.5" transform="matrix(-1 0 0 1 13.5 24.5)" fill="#E9E9E9"/>
<circle r="2.5" transform="matrix(-1 0 0 1 2.5 24.5)" fill="#E9E9E9"/>
<circle r="2.5" transform="matrix(-1 0 0 1 68.5 13.5)" fill="#E9E9E9"/>
<circle r="2.5" transform="matrix(-1 0 0 1 79.5 13.5)" fill="#E9E9E9"/>
<circle r="2.5" transform="matrix(-1 0 0 1 90.5 13.5)" fill="#E9E9E9"/>
<circle r="2.5" transform="matrix(-1 0 0 1 101.5 13.5)" fill="#E9E9E9"/>
<circle r="2.5" transform="matrix(-1 0 0 1 57.5 13.5)" fill="#E9E9E9"/>
<circle r="2.5" transform="matrix(-1 0 0 1 46.5 13.5)" fill="#E9E9E9"/>
<circle r="2.5" transform="matrix(-1 0 0 1 35.5 13.5)" fill="#E9E9E9"/>
<circle r="2.5" transform="matrix(-1 0 0 1 24.5 13.5)" fill="#E9E9E9"/>
<circle r="2.5" transform="matrix(-1 0 0 1 13.5 13.5)" fill="#E9E9E9"/>
<circle r="2.5" transform="matrix(-1 0 0 1 2.5 13.5)" fill="#E9E9E9"/>
<circle r="2.5" transform="matrix(-1 0 0 1 68.5 2.5)" fill="#E9E9E9"/>
<circle r="2.5" transform="matrix(-1 0 0 1 79.5 2.5)" fill="#E9E9E9"/>
<circle r="2.5" transform="matrix(-1 0 0 1 90.5 2.5)" fill="#E9E9E9"/>
<circle r="2.5" transform="matrix(-1 0 0 1 101.5 2.5)" fill="#E9E9E9"/>
<circle r="2.5" transform="matrix(-1 0 0 1 57.5 2.5)" fill="#E9E9E9"/>
<circle r="2.5" transform="matrix(-1 0 0 1 46.5 2.5)" fill="#E9E9E9"/>
<circle r="2.5" transform="matrix(-1 0 0 1 35.5 2.5)" fill="#E9E9E9"/>
<circle r="2.5" transform="matrix(-1 0 0 1 24.5 2.5)" fill="#E9E9E9"/>
<circle r="2.5" transform="matrix(-1 0 0 1 13.5 2.5)" fill="#E9E9E9"/>
<circle r="2.5" transform="matrix(-1 0 0 1 2.5 2.5)" fill="#E9E9E9"/>
<circle r="2.5" transform="matrix(-1 0 0 1 68.5 46.5)" fill="#E9E9E9"/>
<circle r="2.5" transform="matrix(-1 0 0 1 79.5 46.5)" fill="#E9E9E9"/>
<circle r="2.5" transform="matrix(-1 0 0 1 90.5 46.5)" fill="#E9E9E9"/>
<circle r="2.5" transform="matrix(-1 0 0 1 101.5 46.5)" fill="#E9E9E9"/>
<circle r="2.5" transform="matrix(-1 0 0 1 57.5 46.5)" fill="#E9E9E9"/>
<circle r="2.5" transform="matrix(-1 0 0 1 46.5 46.5)" fill="#E9E9E9"/>
<circle r="2.5" transform="matrix(-1 0 0 1 35.5 46.5)" fill="#E9E9E9"/>
<circle r="2.5" transform="matrix(-1 0 0 1 24.5 46.5)" fill="#E9E9E9"/>
<circle r="2.5" transform="matrix(-1 0 0 1 13.5 46.5)" fill="#E9E9E9"/>
<circle r="2.5" transform="matrix(-1 0 0 1 2.5 46.5)" fill="#E9E9E9"/>
<circle r="2.5" transform="matrix(-1 0 0 1 68.5 57.5)" fill="#E9E9E9"/>
<circle r="2.5" transform="matrix(-1 0 0 1 79.5 57.5)" fill="#E9E9E9"/>
<circle r="2.5" transform="matrix(-1 0 0 1 90.5 57.5)" fill="#E9E9E9"/>
<circle r="2.5" transform="matrix(-1 0 0 1 101.5 57.5)" fill="#E9E9E9"/>
<circle r="2.5" transform="matrix(-1 0 0 1 57.5 57.5)" fill="#E9E9E9"/>
<circle r="2.5" transform="matrix(-1 0 0 1 46.5 57.5)" fill="#E9E9E9"/>
<circle r="2.5" transform="matrix(-1 0 0 1 35.5 57.5)" fill="#E9E9E9"/>
<circle r="2.5" transform="matrix(-1 0 0 1 24.5 57.5)" fill="#E9E9E9"/>
<circle r="2.5" transform="matrix(-1 0 0 1 13.5 57.5)" fill="#E9E9E9"/>
<circle r="2.5" transform="matrix(-1 0 0 1 2.5 57.5)" fill="#E9E9E9"/>
<circle r="2.5" transform="matrix(-1 0 0 1 68.5 101.5)" fill="#E9E9E9"/>
<circle r="2.5" transform="matrix(-1 0 0 1 79.5 101.5)" fill="#E9E9E9"/>
<circle r="2.5" transform="matrix(-1 0 0 1 90.5 101.5)" fill="#E9E9E9"/>
<circle r="2.5" transform="matrix(-1 0 0 1 101.5 101.5)" fill="#E9E9E9"/>
<circle r="2.5" transform="matrix(-1 0 0 1 57.5 101.5)" fill="#E9E9E9"/>
<circle r="2.5" transform="matrix(-1 0 0 1 46.5 101.5)" fill="#E9E9E9"/>
<circle r="2.5" transform="matrix(-1 0 0 1 35.5 101.5)" fill="#E9E9E9"/>
<circle r="2.5" transform="matrix(-1 0 0 1 24.5 101.5)" fill="#E9E9E9"/>
<circle r="2.5" transform="matrix(-1 0 0 1 13.5 101.5)" fill="#E9E9E9"/>
<circle r="2.5" transform="matrix(-1 0 0 1 2.5 101.5)" fill="#E9E9E9"/>
<circle r="2.5" transform="matrix(-1 0 0 1 68.5 68.5)" fill="#E9E9E9"/>
<circle r="2.5" transform="matrix(-1 0 0 1 79.5 68.5)" fill="#E9E9E9"/>
<circle r="2.5" transform="matrix(-1 0 0 1 90.5 68.5)" fill="#E9E9E9"/>
<circle r="2.5" transform="matrix(-1 0 0 1 101.5 68.5)" fill="#E9E9E9"/>
<circle r="2.5" transform="matrix(-1 0 0 1 57.5 68.5)" fill="#E9E9E9"/>
<circle r="2.5" transform="matrix(-1 0 0 1 46.5 68.5)" fill="#E9E9E9"/>
<circle r="2.5" transform="matrix(-1 0 0 1 35.5 68.5)" fill="#E9E9E9"/>
<circle r="2.5" transform="matrix(-1 0 0 1 24.5 68.5)" fill="#E9E9E9"/>
<circle r="2.5" transform="matrix(-1 0 0 1 13.5 68.5)" fill="#E9E9E9"/>
<circle r="2.5" transform="matrix(-1 0 0 1 2.5 68.5)" fill="#E9E9E9"/>
<circle r="2.5" transform="matrix(-1 0 0 1 68.5 112.5)" fill="#E9E9E9"/>
<circle r="2.5" transform="matrix(-1 0 0 1 79.5 112.5)" fill="#E9E9E9"/>
<circle r="2.5" transform="matrix(-1 0 0 1 90.5 112.5)" fill="#E9E9E9"/>
<circle r="2.5" transform="matrix(-1 0 0 1 101.5 112.5)" fill="#E9E9E9"/>
<circle r="2.5" transform="matrix(-1 0 0 1 57.5 112.5)" fill="#E9E9E9"/>
<circle r="2.5" transform="matrix(-1 0 0 1 46.5 112.5)" fill="#E9E9E9"/>
<circle r="2.5" transform="matrix(-1 0 0 1 35.5 112.5)" fill="#E9E9E9"/>
<circle r="2.5" transform="matrix(-1 0 0 1 24.5 112.5)" fill="#E9E9E9"/>
<circle r="2.5" transform="matrix(-1 0 0 1 13.5 112.5)" fill="#E9E9E9"/>
<circle r="2.5" transform="matrix(-1 0 0 1 2.5 112.5)" fill="#E9E9E9"/>
<circle r="2.5" transform="matrix(-1 0 0 1 68.5 79.5)" fill="#E9E9E9"/>
<circle r="2.5" transform="matrix(-1 0 0 1 79.5 79.5)" fill="#E9E9E9"/>
<circle r="2.5" transform="matrix(-1 0 0 1 90.5 79.5)" fill="#E9E9E9"/>
<circle r="2.5" transform="matrix(-1 0 0 1 101.5 79.5)" fill="#E9E9E9"/>
<circle r="2.5" transform="matrix(-1 0 0 1 57.5 79.5)" fill="#E9E9E9"/>
<circle r="2.5" transform="matrix(-1 0 0 1 46.5 79.5)" fill="#E9E9E9"/>
<circle r="2.5" transform="matrix(-1 0 0 1 35.5 79.5)" fill="#E9E9E9"/>
<circle r="2.5" transform="matrix(-1 0 0 1 24.5 79.5)" fill="#E9E9E9"/>
<circle r="2.5" transform="matrix(-1 0 0 1 13.5 79.5)" fill="#E9E9E9"/>
<circle r="2.5" transform="matrix(-1 0 0 1 2.5 79.5)" fill="#E9E9E9"/>
<circle r="2.5" transform="matrix(-1 0 0 1 68.5 123.5)" fill="#E9E9E9"/>
<circle r="2.5" transform="matrix(-1 0 0 1 79.5 123.5)" fill="#E9E9E9"/>
<circle r="2.5" transform="matrix(-1 0 0 1 90.5 123.5)" fill="#E9E9E9"/>
<circle r="2.5" transform="matrix(-1 0 0 1 101.5 123.5)" fill="#E9E9E9"/>
<circle r="2.5" transform="matrix(-1 0 0 1 57.5 123.5)" fill="#E9E9E9"/>
<circle r="2.5" transform="matrix(-1 0 0 1 46.5 123.5)" fill="#E9E9E9"/>
<circle r="2.5" transform="matrix(-1 0 0 1 35.5 123.5)" fill="#E9E9E9"/>
<circle r="2.5" transform="matrix(-1 0 0 1 24.5 123.5)" fill="#E9E9E9"/>
<circle r="2.5" transform="matrix(-1 0 0 1 13.5 123.5)" fill="#E9E9E9"/>
<circle r="2.5" transform="matrix(-1 0 0 1 2.5 123.5)" fill="#E9E9E9"/>
<circle r="2.5" transform="matrix(-1 0 0 1 68.5 90.5)" fill="#E9E9E9"/>
<circle r="2.5" transform="matrix(-1 0 0 1 79.5 90.5)" fill="#E9E9E9"/>
<circle r="2.5" transform="matrix(-1 0 0 1 90.5 90.5)" fill="#E9E9E9"/>
<circle r="2.5" transform="matrix(-1 0 0 1 101.5 90.5)" fill="#E9E9E9"/>
<circle r="2.5" transform="matrix(-1 0 0 1 57.5 90.5)" fill="#E9E9E9"/>
<circle r="2.5" transform="matrix(-1 0 0 1 46.5 90.5)" fill="#E9E9E9"/>
<circle r="2.5" transform="matrix(-1 0 0 1 35.5 90.5)" fill="#E9E9E9"/>
<circle r="2.5" transform="matrix(-1 0 0 1 24.5 90.5)" fill="#E9E9E9"/>
<circle r="2.5" transform="matrix(-1 0 0 1 13.5 90.5)" fill="#E9E9E9"/>
<circle r="2.5" transform="matrix(-1 0 0 1 2.5 90.5)" fill="#E9E9E9"/>
<circle r="2.5" transform="matrix(-1 0 0 1 68.5 134.5)" fill="#E9E9E9"/>
<circle r="2.5" transform="matrix(-1 0 0 1 79.5 134.5)" fill="#E9E9E9"/>
<circle r="2.5" transform="matrix(-1 0 0 1 90.5 134.5)" fill="#E9E9E9"/>
<circle r="2.5" transform="matrix(-1 0 0 1 101.5 134.5)" fill="#E9E9E9"/>
<circle r="2.5" transform="matrix(-1 0 0 1 57.5 134.5)" fill="#E9E9E9"/>
<circle r="2.5" transform="matrix(-1 0 0 1 46.5 134.5)" fill="#E9E9E9"/>
<circle r="2.5" transform="matrix(-1 0 0 1 35.5 134.5)" fill="#E9E9E9"/>
<circle r="2.5" transform="matrix(-1 0 0 1 24.5 134.5)" fill="#E9E9E9"/>
<circle r="2.5" transform="matrix(-1 0 0 1 13.5 134.5)" fill="#E9E9E9"/>
<circle r="2.5" transform="matrix(-1 0 0 1 2.5 134.5)" fill="#E9E9E9"/>
</svg>
