<svg width="16" height="11" viewBox="0 0 16 11" fill="none" xmlns="http://www.w3.org/2000/svg">
<g clip-path="url(#clip0_9_2858)">
<path d="M10.6868 10.6534C10.5878 10.7683 10.4435 10.8375 10.2892 10.8442C10.1348 10.851 9.98461 10.7946 9.87534 10.6889C9.76618 10.5831 9.70781 10.4379 9.71484 10.2885C9.72186 10.1391 9.79341 9.99948 9.91209 9.9038L13.8649 6.0748L0.799794 6.0748C0.609892 6.06497 0.438573 5.96133 0.346489 5.80038C0.254296 5.63954 0.254296 5.44406 0.34649 5.28313C0.438575 5.12219 0.609886 5.01855 0.799794 5.00882L13.8649 5.00883L9.906 1.18411C9.80635 1.08308 9.75079 0.948907 9.75079 0.809294C9.75079 0.66968 9.80635 0.535411 9.906 0.434479C10.0087 0.334813 10.148 0.278864 10.2934 0.278864C10.4387 0.278864 10.5782 0.334813 10.6807 0.434479L15.5771 5.17214L15.5771 5.17203C15.6823 5.27013 15.7419 5.40546 15.7419 5.54685C15.7419 5.68835 15.6823 5.82368 15.5771 5.92166L10.6868 10.6534Z" fill="#F89A1F"/>
</g>
<defs>
<clipPath id="clip0_9_2858">
<rect width="16" height="11" rx="5.5" transform="matrix(1 8.74228e-08 8.74228e-08 -1 0 11)" fill="white"/>
</clipPath>
</defs>
</svg>
