<svg width="90" height="65" viewBox="0 0 90 65" fill="none" xmlns="http://www.w3.org/2000/svg">
<path d="M64.0568 3.8482L64.0559 3.84736C63.0395 2.97107 61.6998 2.5 60.2934 2.5H31.6185C27.55 2.5 24.1105 5.36691 24.1105 9.0393V20.8246C24.1105 21.7435 24.945 22.36 25.8114 22.36C26.6778 22.36 27.5122 21.7435 27.5122 20.8246V9.0393C27.5122 7.19163 29.2844 5.56785 31.6185 5.56785H60.2934C60.8372 5.56785 61.3286 5.74931 61.6987 6.06559C61.6991 6.06593 61.6995 6.06627 61.6999 6.0666L71.5614 14.6072C71.5617 14.6075 71.5621 14.6079 71.5625 14.6082C71.9219 14.9232 72.105 15.3215 72.105 15.721V56.9578C72.105 58.8084 70.3363 60.4292 67.9988 60.4292H31.6185C29.2841 60.4292 27.5122 58.8081 27.5122 56.9578V45.1783C27.5122 44.2691 26.6787 43.6459 25.8114 43.6459C24.944 43.6459 24.1105 44.2691 24.1105 45.1783V56.9578C24.1105 60.6329 27.5499 63.5 31.6185 63.5H67.9988C72.0681 63.5 75.5 60.6324 75.5 56.9578V15.721C75.5 14.4563 74.9318 13.2687 73.9185 12.3949C73.9184 12.3947 73.9182 12.3946 73.9181 12.3945L64.0568 3.8482ZM31.5142 29.4577L31.5115 29.4554C30.842 28.9027 29.8083 28.9225 29.1617 29.4923L29.1617 29.4923L29.1588 29.4949L24.8506 33.3519L22.3335 31.5139L22.3329 31.5135C21.6362 31.0061 20.6047 31.071 19.9935 31.6852L19.9934 31.6852L19.9907 31.688C19.3445 32.3477 19.4514 33.361 20.2009 33.8977C20.2019 33.8985 20.2029 33.8992 20.2039 33.8999L23.89 36.604C23.8905 36.6044 23.891 36.6047 23.8914 36.6051C24.2122 36.8434 24.5952 36.9494 24.9609 36.9494C25.3855 36.9494 25.8253 36.8048 26.159 36.5046C26.1592 36.5045 26.1593 36.5043 26.1595 36.5042L31.5503 31.6745C32.2366 31.0608 32.2208 30.0494 31.5142 29.4577ZM17.9018 33.0029C17.9018 29.3449 21.3789 26.2464 25.8114 26.2464C30.2471 26.2464 33.721 29.3448 33.721 33.0029C33.721 36.6519 30.2475 39.7507 25.8114 39.7507C21.3785 39.7507 17.9018 36.6518 17.9018 33.0029ZM37.1193 33.0029C37.1193 27.5184 31.9794 23.1785 25.8114 23.1785C19.6436 23.1785 14.5 27.5182 14.5 33.0029C14.5 38.4791 19.6439 42.8185 25.8114 42.8185C31.9791 42.8185 37.1193 38.479 37.1193 33.0029ZM60.4533 6.17814C59.5869 6.17814 58.7524 6.79464 58.7524 7.71353V15.5802C58.7524 16.4953 59.5859 17.1156 60.4533 17.1156H69.1895C70.0501 17.1156 70.887 16.4953 70.887 15.5802C70.887 14.6634 70.0481 14.0477 69.1895 14.0477H62.1542V7.71353C62.1542 6.79465 61.3197 6.17814 60.4533 6.17814Z" fill="#F89A1F" stroke="#F89A1F"/>
</svg>
