<svg width="137" height="104" viewBox="0 0 137 104" fill="none" xmlns="http://www.w3.org/2000/svg">
<circle cx="35.5" cy="68.5" r="2.5" transform="rotate(-90 35.5 68.5)" fill="#E9E9E9"/>
<circle cx="35.5" cy="79.5" r="2.5" transform="rotate(-90 35.5 79.5)" fill="#E9E9E9"/>
<circle cx="35.5" cy="90.5" r="2.5" transform="rotate(-90 35.5 90.5)" fill="#E9E9E9"/>
<circle cx="35.5" cy="101.5" r="2.5" transform="rotate(-90 35.5 101.5)" fill="#E9E9E9"/>
<circle cx="35.5" cy="57.5" r="2.5" transform="rotate(-90 35.5 57.5)" fill="#E9E9E9"/>
<circle cx="35.5" cy="46.5" r="2.5" transform="rotate(-90 35.5 46.5)" fill="#E9E9E9"/>
<circle cx="35.5" cy="35.5" r="2.5" transform="rotate(-90 35.5 35.5)" fill="#E9E9E9"/>
<circle cx="35.5" cy="24.5" r="2.5" transform="rotate(-90 35.5 24.5)" fill="#E9E9E9"/>
<circle cx="35.5" cy="13.5" r="2.5" transform="rotate(-90 35.5 13.5)" fill="#E9E9E9"/>
<circle cx="35.5" cy="2.5" r="2.5" transform="rotate(-90 35.5 2.5)" fill="#E9E9E9"/>
<circle cx="24.5" cy="68.5" r="2.5" transform="rotate(-90 24.5 68.5)" fill="#E9E9E9"/>
<circle cx="24.5" cy="79.5" r="2.5" transform="rotate(-90 24.5 79.5)" fill="#E9E9E9"/>
<circle cx="24.5" cy="90.5" r="2.5" transform="rotate(-90 24.5 90.5)" fill="#E9E9E9"/>
<circle cx="24.5" cy="101.5" r="2.5" transform="rotate(-90 24.5 101.5)" fill="#E9E9E9"/>
<circle cx="24.5" cy="57.5" r="2.5" transform="rotate(-90 24.5 57.5)" fill="#E9E9E9"/>
<circle cx="24.5" cy="46.5" r="2.5" transform="rotate(-90 24.5 46.5)" fill="#E9E9E9"/>
<circle cx="24.5" cy="35.5" r="2.5" transform="rotate(-90 24.5 35.5)" fill="#E9E9E9"/>
<circle cx="24.5" cy="24.5" r="2.5" transform="rotate(-90 24.5 24.5)" fill="#E9E9E9"/>
<circle cx="24.5" cy="13.5" r="2.5" transform="rotate(-90 24.5 13.5)" fill="#E9E9E9"/>
<circle cx="24.5" cy="2.5" r="2.5" transform="rotate(-90 24.5 2.5)" fill="#E9E9E9"/>
<circle cx="13.5" cy="68.5" r="2.5" transform="rotate(-90 13.5 68.5)" fill="#E9E9E9"/>
<circle cx="13.5" cy="79.5" r="2.5" transform="rotate(-90 13.5 79.5)" fill="#E9E9E9"/>
<circle cx="13.5" cy="90.5" r="2.5" transform="rotate(-90 13.5 90.5)" fill="#E9E9E9"/>
<circle cx="13.5" cy="101.5" r="2.5" transform="rotate(-90 13.5 101.5)" fill="#E9E9E9"/>
<circle cx="13.5" cy="57.5" r="2.5" transform="rotate(-90 13.5 57.5)" fill="#E9E9E9"/>
<circle cx="13.5" cy="46.5" r="2.5" transform="rotate(-90 13.5 46.5)" fill="#E9E9E9"/>
<circle cx="13.5" cy="35.5" r="2.5" transform="rotate(-90 13.5 35.5)" fill="#E9E9E9"/>
<circle cx="13.5" cy="24.5" r="2.5" transform="rotate(-90 13.5 24.5)" fill="#E9E9E9"/>
<circle cx="13.5" cy="13.5" r="2.5" transform="rotate(-90 13.5 13.5)" fill="#E9E9E9"/>
<circle cx="13.5" cy="2.5" r="2.5" transform="rotate(-90 13.5 2.5)" fill="#E9E9E9"/>
<circle cx="2.5" cy="68.5" r="2.5" transform="rotate(-90 2.5 68.5)" fill="#E9E9E9"/>
<circle cx="2.5" cy="79.5" r="2.5" transform="rotate(-90 2.5 79.5)" fill="#E9E9E9"/>
<circle cx="2.5" cy="90.5" r="2.5" transform="rotate(-90 2.5 90.5)" fill="#E9E9E9"/>
<circle cx="2.5" cy="101.5" r="2.5" transform="rotate(-90 2.5 101.5)" fill="#E9E9E9"/>
<circle cx="2.5" cy="57.5" r="2.5" transform="rotate(-90 2.5 57.5)" fill="#E9E9E9"/>
<circle cx="2.5" cy="46.5" r="2.5" transform="rotate(-90 2.5 46.5)" fill="#E9E9E9"/>
<circle cx="2.5" cy="35.5" r="2.5" transform="rotate(-90 2.5 35.5)" fill="#E9E9E9"/>
<circle cx="2.5" cy="24.5" r="2.5" transform="rotate(-90 2.5 24.5)" fill="#E9E9E9"/>
<circle cx="2.5" cy="13.5" r="2.5" transform="rotate(-90 2.5 13.5)" fill="#E9E9E9"/>
<circle cx="2.5" cy="2.5" r="2.5" transform="rotate(-90 2.5 2.5)" fill="#E9E9E9"/>
<circle cx="46.5" cy="68.5" r="2.5" transform="rotate(-90 46.5 68.5)" fill="#E9E9E9"/>
<circle cx="46.5" cy="79.5" r="2.5" transform="rotate(-90 46.5 79.5)" fill="#E9E9E9"/>
<circle cx="46.5" cy="90.5" r="2.5" transform="rotate(-90 46.5 90.5)" fill="#E9E9E9"/>
<circle cx="46.5" cy="101.5" r="2.5" transform="rotate(-90 46.5 101.5)" fill="#E9E9E9"/>
<circle cx="46.5" cy="57.5" r="2.5" transform="rotate(-90 46.5 57.5)" fill="#E9E9E9"/>
<circle cx="46.5" cy="46.5" r="2.5" transform="rotate(-90 46.5 46.5)" fill="#E9E9E9"/>
<circle cx="46.5" cy="35.5" r="2.5" transform="rotate(-90 46.5 35.5)" fill="#E9E9E9"/>
<circle cx="46.5" cy="24.5" r="2.5" transform="rotate(-90 46.5 24.5)" fill="#E9E9E9"/>
<circle cx="46.5" cy="13.5" r="2.5" transform="rotate(-90 46.5 13.5)" fill="#E9E9E9"/>
<circle cx="46.5" cy="2.5" r="2.5" transform="rotate(-90 46.5 2.5)" fill="#E9E9E9"/>
<circle cx="57.5" cy="68.5" r="2.5" transform="rotate(-90 57.5 68.5)" fill="#E9E9E9"/>
<circle cx="57.5" cy="79.5" r="2.5" transform="rotate(-90 57.5 79.5)" fill="#E9E9E9"/>
<circle cx="57.5" cy="90.5" r="2.5" transform="rotate(-90 57.5 90.5)" fill="#E9E9E9"/>
<circle cx="57.5" cy="101.5" r="2.5" transform="rotate(-90 57.5 101.5)" fill="#E9E9E9"/>
<circle cx="57.5" cy="57.5" r="2.5" transform="rotate(-90 57.5 57.5)" fill="#E9E9E9"/>
<circle cx="57.5" cy="46.5" r="2.5" transform="rotate(-90 57.5 46.5)" fill="#E9E9E9"/>
<circle cx="57.5" cy="35.5" r="2.5" transform="rotate(-90 57.5 35.5)" fill="#E9E9E9"/>
<circle cx="57.5" cy="24.5" r="2.5" transform="rotate(-90 57.5 24.5)" fill="#E9E9E9"/>
<circle cx="57.5" cy="13.5" r="2.5" transform="rotate(-90 57.5 13.5)" fill="#E9E9E9"/>
<circle cx="57.5" cy="2.5" r="2.5" transform="rotate(-90 57.5 2.5)" fill="#E9E9E9"/>
<circle cx="101.5" cy="68.5" r="2.5" transform="rotate(-90 101.5 68.5)" fill="#E9E9E9"/>
<circle cx="101.5" cy="79.5" r="2.5" transform="rotate(-90 101.5 79.5)" fill="#E9E9E9"/>
<circle cx="101.5" cy="90.5" r="2.5" transform="rotate(-90 101.5 90.5)" fill="#E9E9E9"/>
<circle cx="101.5" cy="101.5" r="2.5" transform="rotate(-90 101.5 101.5)" fill="#E9E9E9"/>
<circle cx="101.5" cy="57.5" r="2.5" transform="rotate(-90 101.5 57.5)" fill="#E9E9E9"/>
<circle cx="101.5" cy="46.5" r="2.5" transform="rotate(-90 101.5 46.5)" fill="#E9E9E9"/>
<circle cx="101.5" cy="35.5" r="2.5" transform="rotate(-90 101.5 35.5)" fill="#E9E9E9"/>
<circle cx="101.5" cy="24.5" r="2.5" transform="rotate(-90 101.5 24.5)" fill="#E9E9E9"/>
<circle cx="101.5" cy="13.5" r="2.5" transform="rotate(-90 101.5 13.5)" fill="#E9E9E9"/>
<circle cx="101.5" cy="2.5" r="2.5" transform="rotate(-90 101.5 2.5)" fill="#E9E9E9"/>
<circle cx="68.5" cy="68.5" r="2.5" transform="rotate(-90 68.5 68.5)" fill="#E9E9E9"/>
<circle cx="68.5" cy="79.5" r="2.5" transform="rotate(-90 68.5 79.5)" fill="#E9E9E9"/>
<circle cx="68.5" cy="90.5" r="2.5" transform="rotate(-90 68.5 90.5)" fill="#E9E9E9"/>
<circle cx="68.5" cy="101.5" r="2.5" transform="rotate(-90 68.5 101.5)" fill="#E9E9E9"/>
<circle cx="68.5" cy="57.5" r="2.5" transform="rotate(-90 68.5 57.5)" fill="#E9E9E9"/>
<circle cx="68.5" cy="46.5" r="2.5" transform="rotate(-90 68.5 46.5)" fill="#E9E9E9"/>
<circle cx="68.5" cy="35.5" r="2.5" transform="rotate(-90 68.5 35.5)" fill="#E9E9E9"/>
<circle cx="68.5" cy="24.5" r="2.5" transform="rotate(-90 68.5 24.5)" fill="#E9E9E9"/>
<circle cx="68.5" cy="13.5" r="2.5" transform="rotate(-90 68.5 13.5)" fill="#E9E9E9"/>
<circle cx="68.5" cy="2.5" r="2.5" transform="rotate(-90 68.5 2.5)" fill="#E9E9E9"/>
<circle cx="112.5" cy="68.5" r="2.5" transform="rotate(-90 112.5 68.5)" fill="#E9E9E9"/>
<circle cx="112.5" cy="79.5" r="2.5" transform="rotate(-90 112.5 79.5)" fill="#E9E9E9"/>
<circle cx="112.5" cy="90.5" r="2.5" transform="rotate(-90 112.5 90.5)" fill="#E9E9E9"/>
<circle cx="112.5" cy="101.5" r="2.5" transform="rotate(-90 112.5 101.5)" fill="#E9E9E9"/>
<circle cx="112.5" cy="57.5" r="2.5" transform="rotate(-90 112.5 57.5)" fill="#E9E9E9"/>
<circle cx="112.5" cy="46.5" r="2.5" transform="rotate(-90 112.5 46.5)" fill="#E9E9E9"/>
<circle cx="112.5" cy="35.5" r="2.5" transform="rotate(-90 112.5 35.5)" fill="#E9E9E9"/>
<circle cx="112.5" cy="24.5" r="2.5" transform="rotate(-90 112.5 24.5)" fill="#E9E9E9"/>
<circle cx="112.5" cy="13.5" r="2.5" transform="rotate(-90 112.5 13.5)" fill="#E9E9E9"/>
<circle cx="112.5" cy="2.5" r="2.5" transform="rotate(-90 112.5 2.5)" fill="#E9E9E9"/>
<circle cx="79.5" cy="68.5" r="2.5" transform="rotate(-90 79.5 68.5)" fill="#E9E9E9"/>
<circle cx="79.5" cy="79.5" r="2.5" transform="rotate(-90 79.5 79.5)" fill="#E9E9E9"/>
<circle cx="79.5" cy="90.5" r="2.5" transform="rotate(-90 79.5 90.5)" fill="#E9E9E9"/>
<circle cx="79.5" cy="101.5" r="2.5" transform="rotate(-90 79.5 101.5)" fill="#E9E9E9"/>
<circle cx="79.5" cy="57.5" r="2.5" transform="rotate(-90 79.5 57.5)" fill="#E9E9E9"/>
<circle cx="79.5" cy="46.5" r="2.5" transform="rotate(-90 79.5 46.5)" fill="#E9E9E9"/>
<circle cx="79.5" cy="35.5" r="2.5" transform="rotate(-90 79.5 35.5)" fill="#E9E9E9"/>
<circle cx="79.5" cy="24.5" r="2.5" transform="rotate(-90 79.5 24.5)" fill="#E9E9E9"/>
<circle cx="79.5" cy="13.5" r="2.5" transform="rotate(-90 79.5 13.5)" fill="#E9E9E9"/>
<circle cx="79.5" cy="2.5" r="2.5" transform="rotate(-90 79.5 2.5)" fill="#E9E9E9"/>
<circle cx="123.5" cy="68.5" r="2.5" transform="rotate(-90 123.5 68.5)" fill="#E9E9E9"/>
<circle cx="123.5" cy="79.5" r="2.5" transform="rotate(-90 123.5 79.5)" fill="#E9E9E9"/>
<circle cx="123.5" cy="90.5" r="2.5" transform="rotate(-90 123.5 90.5)" fill="#E9E9E9"/>
<circle cx="123.5" cy="101.5" r="2.5" transform="rotate(-90 123.5 101.5)" fill="#E9E9E9"/>
<circle cx="123.5" cy="57.5" r="2.5" transform="rotate(-90 123.5 57.5)" fill="#E9E9E9"/>
<circle cx="123.5" cy="46.5" r="2.5" transform="rotate(-90 123.5 46.5)" fill="#E9E9E9"/>
<circle cx="123.5" cy="35.5" r="2.5" transform="rotate(-90 123.5 35.5)" fill="#E9E9E9"/>
<circle cx="123.5" cy="24.5" r="2.5" transform="rotate(-90 123.5 24.5)" fill="#E9E9E9"/>
<circle cx="123.5" cy="13.5" r="2.5" transform="rotate(-90 123.5 13.5)" fill="#E9E9E9"/>
<circle cx="123.5" cy="2.5" r="2.5" transform="rotate(-90 123.5 2.5)" fill="#E9E9E9"/>
<circle cx="90.5" cy="68.5" r="2.5" transform="rotate(-90 90.5 68.5)" fill="#E9E9E9"/>
<circle cx="90.5" cy="79.5" r="2.5" transform="rotate(-90 90.5 79.5)" fill="#E9E9E9"/>
<circle cx="90.5" cy="90.5" r="2.5" transform="rotate(-90 90.5 90.5)" fill="#E9E9E9"/>
<circle cx="90.5" cy="101.5" r="2.5" transform="rotate(-90 90.5 101.5)" fill="#E9E9E9"/>
<circle cx="90.5" cy="57.5" r="2.5" transform="rotate(-90 90.5 57.5)" fill="#E9E9E9"/>
<circle cx="90.5" cy="46.5" r="2.5" transform="rotate(-90 90.5 46.5)" fill="#E9E9E9"/>
<circle cx="90.5" cy="35.5" r="2.5" transform="rotate(-90 90.5 35.5)" fill="#E9E9E9"/>
<circle cx="90.5" cy="24.5" r="2.5" transform="rotate(-90 90.5 24.5)" fill="#E9E9E9"/>
<circle cx="90.5" cy="13.5" r="2.5" transform="rotate(-90 90.5 13.5)" fill="#E9E9E9"/>
<circle cx="90.5" cy="2.5" r="2.5" transform="rotate(-90 90.5 2.5)" fill="#E9E9E9"/>
<circle cx="134.5" cy="68.5" r="2.5" transform="rotate(-90 134.5 68.5)" fill="#E9E9E9"/>
<circle cx="134.5" cy="79.5" r="2.5" transform="rotate(-90 134.5 79.5)" fill="#E9E9E9"/>
<circle cx="134.5" cy="90.5" r="2.5" transform="rotate(-90 134.5 90.5)" fill="#E9E9E9"/>
<circle cx="134.5" cy="101.5" r="2.5" transform="rotate(-90 134.5 101.5)" fill="#E9E9E9"/>
<circle cx="134.5" cy="57.5" r="2.5" transform="rotate(-90 134.5 57.5)" fill="#E9E9E9"/>
<circle cx="134.5" cy="46.5" r="2.5" transform="rotate(-90 134.5 46.5)" fill="#E9E9E9"/>
<circle cx="134.5" cy="35.5" r="2.5" transform="rotate(-90 134.5 35.5)" fill="#E9E9E9"/>
<circle cx="134.5" cy="24.5" r="2.5" transform="rotate(-90 134.5 24.5)" fill="#E9E9E9"/>
<circle cx="134.5" cy="13.5" r="2.5" transform="rotate(-90 134.5 13.5)" fill="#E9E9E9"/>
<circle cx="134.5" cy="2.5" r="2.5" transform="rotate(-90 134.5 2.5)" fill="#E9E9E9"/>
</svg>
