<svg width="90" height="65" viewBox="0 0 90 65" fill="none" xmlns="http://www.w3.org/2000/svg">
<path d="M75.2503 20.6727V20.6725C75.25 20.1935 75.0594 19.7342 74.7208 19.3955L57.6045 2.27898C57.2657 1.94026 56.8063 1.75 56.3271 1.75H25.5696C19.6034 1.75 14.75 6.60344 14.75 12.5696V51.4306C14.75 57.3968 19.6034 62.2503 25.5696 62.2503H64.4306C70.3968 62.2503 75.2503 57.3968 75.2503 51.4306V20.6727ZM57.8741 19.1257V7.6579L69.3418 19.1257H57.8741ZM64.4304 58.6372H25.5696C21.596 58.6372 18.3628 55.404 18.3628 51.4304V12.5696C18.3628 8.59601 21.596 5.36276 25.5696 5.36276H54.2613V20.9321C54.2613 21.9295 55.0702 22.7384 56.0677 22.7384H71.637V51.4304C71.6372 55.404 68.404 58.6372 64.4304 58.6372Z" fill="#F89A1F" stroke="#F89A1F" stroke-width="0.5"/>
<mask id="path-2-inside-1_2119_1493" fill="white">
<path d="M41.8998 15.5149C40.3618 13.8931 38.3172 13 36.1423 13C33.9674 13 31.9228 13.8931 30.3849 15.5149C28.8469 17.1367 28 19.2929 28 21.5864C28 23.8799 28.8469 26.0361 30.3849 27.6579L46.5154 44.6682C48.6012 46.8674 51.9939 46.8669 54.0792 44.6682C56.1644 42.4689 56.1644 38.8911 54.0792 36.6918L38.108 19.8502C37.4939 19.2025 36.4978 19.2025 35.8839 19.8502C35.2697 20.4978 35.2697 21.548 35.8839 22.1957L51.8547 39.0376C52.7135 39.9432 52.7135 41.4171 51.8547 42.3227C50.996 43.2283 49.5986 43.2283 48.7396 42.3227L32.6091 25.3127C31.6651 24.3173 31.1456 22.994 31.1456 21.5867C31.1456 20.1791 31.6654 18.8559 32.6091 17.8607C34.5575 15.806 37.7272 15.806 39.6756 17.8607L56.5768 35.6837C59.6088 38.8811 59.6088 44.0838 56.5768 47.2813C55.108 48.8301 53.1552 49.6831 51.078 49.6831C49.0009 49.6831 47.048 48.8301 45.5793 47.2813L32.5847 33.5776C31.9705 32.9299 30.9744 32.9299 30.3605 33.5776C29.7463 34.2253 29.7463 35.2754 30.3605 35.9231L43.3551 49.6265C45.4181 51.802 48.1608 53 51.078 53C53.9953 53 56.7382 51.802 58.801 49.6265C60.8637 47.451 62 44.5587 62 41.4821C62 38.4057 60.8639 35.5131 58.801 33.3379L41.8998 15.5149Z"/>
</mask>
<path d="M41.8998 15.5149C40.3618 13.8931 38.3172 13 36.1423 13C33.9674 13 31.9228 13.8931 30.3849 15.5149C28.8469 17.1367 28 19.2929 28 21.5864C28 23.8799 28.8469 26.0361 30.3849 27.6579L46.5154 44.6682C48.6012 46.8674 51.9939 46.8669 54.0792 44.6682C56.1644 42.4689 56.1644 38.8911 54.0792 36.6918L38.108 19.8502C37.4939 19.2025 36.4978 19.2025 35.8839 19.8502C35.2697 20.4978 35.2697 21.548 35.8839 22.1957L51.8547 39.0376C52.7135 39.9432 52.7135 41.4171 51.8547 42.3227C50.996 43.2283 49.5986 43.2283 48.7396 42.3227L32.6091 25.3127C31.6651 24.3173 31.1456 22.994 31.1456 21.5867C31.1456 20.1791 31.6654 18.8559 32.6091 17.8607C34.5575 15.806 37.7272 15.806 39.6756 17.8607L56.5768 35.6837C59.6088 38.8811 59.6088 44.0838 56.5768 47.2813C55.108 48.8301 53.1552 49.6831 51.078 49.6831C49.0009 49.6831 47.048 48.8301 45.5793 47.2813L32.5847 33.5776C31.9705 32.9299 30.9744 32.9299 30.3605 33.5776C29.7463 34.2253 29.7463 35.2754 30.3605 35.9231L43.3551 49.6265C45.4181 51.802 48.1608 53 51.078 53C53.9953 53 56.7382 51.802 58.801 49.6265C60.8637 47.451 62 44.5587 62 41.4821C62 38.4057 60.8639 35.5131 58.801 33.3379L41.8998 15.5149Z" fill="#F89A1F"/>
<path d="M41.8998 15.5149L44.8023 12.7626L44.8023 12.7626L41.8998 15.5149ZM30.3849 27.6579L33.2874 24.9055L33.2874 24.9055L30.3849 27.6579ZM46.5154 44.6682L43.6129 47.4205L43.6131 47.4207L46.5154 44.6682ZM54.0792 44.6682L56.9815 47.4207L56.9818 47.4204L54.0792 44.6682ZM54.0792 36.6918L56.9818 33.9396L56.9816 33.9394L54.0792 36.6918ZM38.108 19.8502L35.2056 22.6025L35.2056 22.6026L38.108 19.8502ZM35.8839 19.8502L38.7864 22.6025L38.7869 22.6019L35.8839 19.8502ZM35.8839 22.1957L38.7864 19.4433L38.7864 19.4433L35.8839 22.1957ZM51.8547 39.0376L48.9522 41.79L48.9522 41.79L51.8547 39.0376ZM48.7396 42.3227L45.8371 45.0751L45.8375 45.0755L48.7396 42.3227ZM32.6091 25.3127L29.7066 28.065L29.7066 28.0651L32.6091 25.3127ZM39.6756 17.8607L42.5781 15.1083L42.5781 15.1083L39.6756 17.8607ZM56.5768 35.6837L53.6743 38.4361L53.6743 38.4361L56.5768 35.6837ZM45.5793 47.2813L42.6768 50.0336L42.6768 50.0336L45.5793 47.2813ZM32.5847 33.5776L35.4872 30.8253L35.4872 30.8252L32.5847 33.5776ZM30.3605 33.5776L33.263 36.33L33.2636 36.3293L30.3605 33.5776ZM30.3605 35.9231L33.263 33.1707L33.263 33.1707L30.3605 35.9231ZM43.3551 49.6265L40.4526 52.3788L40.4526 52.3788L43.3551 49.6265ZM58.801 33.3379L55.8985 36.0903L55.8986 36.0905L58.801 33.3379ZM44.8023 12.7626C42.5326 10.3691 39.4488 9 36.1423 9V17C37.1857 17 38.1911 17.4171 38.9973 18.2673L44.8023 12.7626ZM36.1423 9C32.8359 9 29.752 10.3691 27.4824 12.7626L33.2874 18.2673C34.0936 17.4171 35.099 17 36.1423 17V9ZM27.4824 12.7626C25.2196 15.1488 24 18.2985 24 21.5864H32C32 20.2873 32.4743 19.1247 33.2874 18.2673L27.4824 12.7626ZM24 21.5864C24 24.8743 25.2196 28.024 27.4824 30.4103L33.2874 24.9055C32.4743 24.0481 32 22.8855 32 21.5864H24ZM27.4824 30.4103L43.6129 47.4205L49.4179 41.9158L33.2874 24.9055L27.4824 30.4103ZM43.6131 47.4207C47.2765 51.2835 53.3191 51.2824 56.9815 47.4207L51.1769 41.9156C50.8994 42.2082 50.5838 42.3174 50.2973 42.3174C50.0109 42.3174 49.6953 42.2083 49.4177 41.9156L43.6131 47.4207ZM56.9818 47.4204C60.5302 43.678 60.5302 37.682 56.9818 33.9396L51.1765 39.444C51.7987 40.1002 51.7987 41.2598 51.1765 41.916L56.9818 47.4204ZM56.9816 33.9394L41.0105 17.0977L35.2056 22.6026L51.1767 39.4443L56.9816 33.9394ZM41.0105 17.0978C38.8192 14.787 35.1726 14.7861 32.9808 17.0984L38.7869 22.6019C37.8229 23.6189 36.1685 23.618 35.2056 22.6025L41.0105 17.0978ZM32.9814 17.0978C30.9039 19.2886 30.9039 22.7572 32.9814 24.948L38.7864 19.4433C39.6355 20.3388 39.6355 21.7071 38.7864 22.6025L32.9814 17.0978ZM32.9814 24.948L48.9522 41.79L54.7572 36.2852L38.7864 19.4433L32.9814 24.948ZM48.9522 41.79C48.6266 41.4465 48.4988 41.0338 48.4988 40.6801C48.4988 40.3265 48.6266 39.9138 48.9522 39.5703L54.7572 45.0751C57.0793 42.6263 57.0793 38.734 54.7572 36.2852L48.9522 41.79ZM48.9522 39.5703C49.6712 38.8121 50.9235 38.8128 51.6416 39.5699L45.8375 45.0755C48.2737 47.6437 52.3208 47.6444 54.7572 45.0751L48.9522 39.5703ZM51.642 39.5703L35.5115 22.5603L29.7066 28.0651L45.8371 45.0751L51.642 39.5703ZM35.5115 22.5603C35.2927 22.3295 35.1456 21.9999 35.1456 21.5867H27.1456C27.1456 23.9881 28.0375 26.305 29.7066 28.065L35.5115 22.5603ZM35.1456 21.5867C35.1456 21.1735 35.2928 20.8438 35.5115 20.6131L29.7066 15.1083C28.038 16.8679 27.1456 19.1848 27.1456 21.5867H35.1456ZM35.5115 20.6131C35.7206 20.3926 35.9461 20.3197 36.1423 20.3197C36.3385 20.3197 36.5641 20.3926 36.7731 20.6131L42.5781 15.1083C39.0522 11.3901 33.2325 11.3901 29.7066 15.1083L35.5115 20.6131ZM36.7731 20.6131L53.6743 38.4361L59.4793 32.9313L42.5781 15.1083L36.7731 20.6131ZM53.6743 38.4361C55.243 40.0904 55.243 42.8746 53.6743 44.5289L59.4793 50.0336C63.9747 45.293 63.9747 37.6719 59.4793 32.9313L53.6743 38.4361ZM53.6743 44.5289C52.9373 45.3061 52.0237 45.6831 51.078 45.6831V53.6831C54.2867 53.6831 57.2788 52.3541 59.4793 50.0336L53.6743 44.5289ZM51.078 45.6831C50.1324 45.6831 49.2188 45.3061 48.4818 44.5289L42.6768 50.0336C44.8773 52.3541 47.8694 53.6831 51.078 53.6831V45.6831ZM48.4818 44.5289L35.4872 30.8253L29.6822 36.3299L42.6768 50.0336L48.4818 44.5289ZM35.4872 30.8252C33.2959 28.5144 29.6492 28.5135 27.4574 30.8258L33.2636 36.3293C32.2996 37.3464 30.6451 37.3454 29.6822 36.33L35.4872 30.8252ZM27.458 30.8252C25.3805 33.0161 25.3805 36.4846 27.458 38.6755L33.263 33.1707C34.1122 34.0662 34.1122 35.4345 33.263 36.33L27.458 30.8252ZM27.458 38.6755L40.4526 52.3788L46.2576 46.8741L33.263 33.1707L27.458 38.6755ZM40.4526 52.3788C43.2473 55.326 47.0292 57 51.078 57V49C49.2923 49 47.5889 48.278 46.2576 46.8741L40.4526 52.3788ZM51.078 57C55.1267 57 58.909 55.3261 61.7036 52.3787L55.8983 46.8743C54.5675 48.2779 52.8639 49 51.078 49V57ZM61.7036 52.3787C64.4909 49.4389 66 45.5533 66 41.4821H58C58 43.5641 57.2364 45.463 55.8983 46.8743L61.7036 52.3787ZM66 41.4821C66 37.4114 64.4914 33.5252 61.7033 30.5854L55.8986 36.0905C57.2365 37.5011 58 39.4 58 41.4821H66ZM61.7034 30.5856L44.8023 12.7626L38.9973 18.2673L55.8985 36.0903L61.7034 30.5856Z" fill="#F89A1F" mask="url(#path-2-inside-1_2119_1493)"/>
</svg>
