<svg width="90" height="65" viewBox="0 0 90 65" fill="none" xmlns="http://www.w3.org/2000/svg">
<path d="M62.9367 21.118L64.4004 19.7277C66.825 17.4241 70.7566 17.4241 73.1812 19.7277C75.6062 22.0312 75.6062 25.766 73.1812 28.0695L71.7179 29.46M62.9367 21.118C62.9367 21.118 63.1199 24.0724 65.8638 26.6793C68.608 29.286 71.7179 29.46 71.7179 29.46M62.9367 21.118L49.4822 33.8997C48.5708 34.7655 48.1152 35.1984 47.7233 35.6757C47.2613 36.2388 46.8649 36.8481 46.5416 37.4925C46.2675 38.0391 46.0635 38.6196 45.6561 39.7812L44.3513 43.5L43.9291 44.703M71.7179 29.46L58.2634 42.2418C57.352 43.1076 56.8963 43.5405 56.3939 43.9128C55.8012 44.3517 55.1598 44.7282 54.4815 45.0354C53.9061 45.2958 53.295 45.4896 52.0723 45.8766L48.1578 47.1162L46.8915 47.5173M43.9291 44.703L43.5068 45.9063C43.3063 46.4778 43.4629 47.1081 43.9114 47.5341C44.3598 47.9601 45.0233 48.1089 45.6248 47.9184L46.8915 47.5173M43.9291 44.703L46.8915 47.5173" stroke="#F89A1F" stroke-width="4"/>
<path d="M30.7891 36H38.6838" stroke="#F89A1F" stroke-width="4" stroke-linecap="round"/>
<path d="M30.7891 24H51.3154" stroke="#F89A1F" stroke-width="4" stroke-linecap="round"/>
<path d="M30.7891 48H35.5259" stroke="#F89A1F" stroke-width="4" stroke-linecap="round"/>
<path d="M15 39V27C15 15.6863 15 10.0295 18.6997 6.51471C22.3994 3 28.354 3 40.2631 3H46.5789C58.488 3 64.4428 3 68.1423 6.51471M71.8421 39C71.8421 50.3136 71.8421 55.9707 68.1423 59.4852M68.1423 59.4852C64.4428 63 58.488 63 46.5789 63H40.2631C28.354 63 22.3994 63 18.6997 59.4852M68.1423 59.4852C71.1205 56.6559 71.7012 52.4388 71.8146 45" stroke="#F89A1F" stroke-width="4" stroke-linecap="round"/>
</svg>
